<svg xmlns="http://www.w3.org/2000/svg" viewBox="0 0 592 578"><g id="Layer_2" data-name="Layer 2"><g id="Layer_1-2" data-name="Layer 1"><path d="M277,0h36c1.65,1,3.53.84,5.34,1,45.09,2.84,88,13.93,128,35.13Q565.36,99.24,588,232.4c1.67,9.81,2.67,19.73,4,29.6v54c-1,1.65-.86,3.53-1,5.34-3.3,41.75-14.22,81.35-35.59,117.47-47.93,81-121.69,122.18-212.71,136-9.18,1.4-18.46,2.12-27.69,3.15H279c-1.83-1-3.87-.86-5.85-1-41.1-2.74-80.56-12.26-117.59-30.33C68.38,504.14,17.28,434.82,3,338.68,1.83,331.14,1,323.56,0,316V262c1-7.9,2-15.81,3.06-23.69C9,195.59,23.3,155.9,48.32,120.65,97.64,51.16,167,15.46,249.8,3.16,258.82,1.82,267.93,1,277,0ZM61,290.34a246.89,246.89,0,0,0,3.91,49.72c9.57,53.91,36,97.51,80.21,129.84,42.25,30.9,90.43,44.79,142.2,46.91,37.82,1.55,74.6-4.38,109.7-18.84,61.8-25.46,105-68.71,124.23-133.53,13-43.89,13.27-88.73,4.43-133.34C515.78,181,490,140.18,449,109.51c-42.55-31.79-91.18-46.19-143.68-48.32a261.5,261.5,0,0,0-112.95,20c-48.09,20.17-85.41,52.37-108.9,99.41C66.45,214.67,60.33,251.12,61,290.34Z"/><path d="M277.73,276.63c3.54,1.41,6.5,2.43,9.33,3.75,19.64,9.21,28.56,25.79,32,46.29,5.48,32.72-11.84,56.88-36.27,69.47a105,105,0,0,1-61.34,11.1c-2.8-.32-3.52-1.21-3.51-3.9q.18-23.74,0-47.48c0-3.14.83-3.9,4-3.71,7.16.46,14.29,0,21-3,9-4.11,12.78-11.43,11.94-23-.56-7.76-4.88-12.29-14.22-15.2-8.12-2.53-16.43-2.13-24.74-2-1.78,0-3.48.47-4.48-1.91-5.18-12.37-13.3-23-20.81-33.92-7.77-11.32-6.55-14,7.07-15.66,6.13-.77,12.31-.42,18.46,0,3.82.26,7.65.54,11.48.58,10.83.13,18.06-5.64,20.73-16.36,2.27-9.15-2-18.13-11-22.8a55.1,55.1,0,0,0-23.55-5.66c-14.48-.48-29.21-2-43.4,0-14.61,2.05-22.36-5.32-30-15-8.74-11.12-15.13-23.76-23.09-35.15.4-1.21,1.19-1,1.77-1,27.81,1.4,55.63-.63,83.44.15,24.26.68,48.49,1.51,72,8.67,21.1,6.42,33.81,20.27,37.12,41.78s-1.34,41.05-18.72,56C288.69,272.32,283.48,274.32,277.73,276.63Z"/><path d="M460,289c0,36.82-.09,73.64.11,110.46,0,4.88-.84,6.56-6.24,6.87-12.82.74-25.63,1-38.45.64a57.59,57.59,0,0,1-10.86-1.34c-11.08-2.48-15.38-7.85-15.68-19.2-.41-15.51,2.09-30.9,2-46.4,0-5.49-.5-11-.5-16.47,0-3.51-1.15-4.59-4.88-4.82-13-.82-26-.73-39-1-4-.08-6-.91-7-5.39a76.27,76.27,0,0,0-17.33-34.33c-1.06-1.21-3.72-2.55-1.89-4.43,2.48-2.56,2.37-7.79,7.53-7.61,6.65.23,13.31.6,20,.76A127.2,127.2,0,0,0,373.67,265c12.1-2.22,17.92-8.9,18.28-21.25s0-25-.53-37.47c-.47-10.31-.18-20.65-.49-31-.1-3.3,1.55-3.33,4-3.32,20.32.05,40.65.13,61-.06,3.81,0,4.19,1.46,4.18,4.65Q459.93,232.78,460,289Z"/><path d="M115,375.12c-.45-6.21.53-12.82.93-19.46.1-1.78.37-2.65,2.58-2.38,18,2.13,35.85.1,53.72-1.74a42.29,42.29,0,0,1,9.93,0c7.22.92,11.2,5,13,11.85,2.94,11.15,1.86,22.46,1.49,33.74-.1,3.12.27,7.06-1.42,9.06-1.14,1.36-5.52,0-8.45-.17-15.85-.76-31.57.73-47.28,2.49a40,40,0,0,1-10.42-.2c-6.4-.93-10.1-4.68-12-10.51C114.82,390.58,114.74,383.09,115,375.12Z"/></g></g></svg>